<?xml version="1.0" encoding="UTF-8" standalone="no"?>
<svg
   xmlns:dc="http://purl.org/dc/elements/1.1/"
   xmlns:cc="http://creativecommons.org/ns#"
   xmlns:rdf="http://www.w3.org/1999/02/22-rdf-syntax-ns#"
   xmlns:svg="http://www.w3.org/2000/svg"
   xmlns="http://www.w3.org/2000/svg"
   xmlns:sodipodi="http://sodipodi.sourceforge.net/DTD/sodipodi-0.dtd"
   xmlns:inkscape="http://www.inkscape.org/namespaces/inkscape"
   width="264"
   height="88"
   viewBox="0 0 264 88"
   id="svg2"
   version="1.1"
   inkscape:version="0.91 r13725"
   sodipodi:docname="default-skin.svg">
  <metadata
     id="metadata45">
    <rdf:RDF>
      <cc:Work
         rdf:about="">
        <dc:format>image/svg+xml</dc:format>
        <dc:type
           rdf:resource="http://purl.org/dc/dcmitype/StillImage" />
        <dc:title>default-skin 2</dc:title>
      </cc:Work>
    </rdf:RDF>
  </metadata>
  <defs
     id="defs43">
    <filter
       inkscape:collect="always"
       style="color-interpolation-filters:sRGB"
       id="filter4203"
       x="-0.216"
       width="1.432"
       y="-0.216"
       height="1.432">
      <feGaussianBlur
         inkscape:collect="always"
         stdDeviation="1.8"
         id="feGaussianBlur4205" />
    </filter>
  </defs>
  <sodipodi:namedview
     pagecolor="#888888"
     bordercolor="#666666"
     borderopacity="1"
     objecttolerance="10"
     gridtolerance="10"
     guidetolerance="10"
     inkscape:pageopacity="1"
     inkscape:pageshadow="2"
     inkscape:window-width="1586"
     inkscape:window-height="885"
     id="namedview41"
     showgrid="false"
     inkscape:zoom="6.6425182"
     inkscape:cx="168.87409"
     inkscape:cy="54.928125"
     inkscape:window-x="0"
     inkscape:window-y="23"
     inkscape:window-maximized="0"
     inkscape:current-layer="svg2" />
  <title
     id="title4">default-skin 2</title>
  <g
     fill="none"
     fill-rule="evenodd"
     id="g6">
    <g
       id="g8">
      <path
         d="M67.002 59.5v3.768c-6.307.84-9.184 5.75-10.002 9.732 2.22-2.83 5.564-5.098 10.002-5.098V71.5L73 65.585 67.002 59.5z"
         id="Shape"
         fill="#fff" />
      <g
         fill="#fff"
         id="g11">
        <path
           d="M13 29v-5h2v3h3v2h-5zM13 15h5v2h-3v3h-2v-5zM31 15v5h-2v-3h-3v-2h5zM31 29h-5v-2h3v-3h2v5z"
           id="path13" />
      </g>
      <g
         fill="#fff"
         id="g15">
        <path
           d="M62 24v5h-2v-3h-3v-2h5zM62 20h-5v-2h3v-3h2v5zM70 20v-5h2v3h3v2h-5zM70 24h5v2h-3v3h-2v-5z"
           id="path17" />
      </g>
      <path
         d="M20.586 66l-5.656-5.656 1.414-1.414L22 64.586l5.656-5.656 1.414 1.414L23.414 66l5.656 5.656-1.414 1.414L22 67.414l-5.656 5.656-1.414-1.414L20.586 66z"
         fill="#fff"
         id="path19" />
      <path
         d="M111.785 65.03L110 63.5l3-3.5h-10v-2h10l-3-3.5 1.785-1.468L117 59l-5.215 6.03z"
         fill="#fff"
         id="path21" />
      <path
         d="M152.215 65.03L154 63.5l-3-3.5h10v-2h-10l3-3.5-1.785-1.468L147 59l5.215 6.03z"
         fill="#fff"
         id="path23" />
      <g
         id="g25">
        <path
           id="Rectangle-11"
           fill="#fff"
           d="M160.957 28.543l-3.25-3.25-1.413 1.414 3.25 3.25z" />
        <path
           d="M152.5 27c3.038 0 5.5-2.462 5.5-5.5s-2.462-5.5-5.5-5.5-5.5 2.462-5.5 5.5 2.462 5.5 5.5 5.5z"
           id="Oval-1"
           stroke="#fff"
           stroke-width="1.5" />
        <path
           fill="#fff"
           d="M150 21h5v1h-5z"
           id="path29" />
      </g>
      <g
         id="g31">
        <path
           d="M116.957 28.543l-1.414 1.414-3.25-3.25 1.414-1.414 3.25 3.25z"
           fill="#fff"
           id="path33" />
        <path
           d="M108.5 27c3.038 0 5.5-2.462 5.5-5.5s-2.462-5.5-5.5-5.5-5.5 2.462-5.5 5.5 2.462 5.5 5.5 5.5z"
           stroke="#fff"
           stroke-width="1.5"
           id="path35" />
        <path
           fill="#fff"
           d="M106 21h5v1h-5z"
           id="path37" />
        <path
           fill="#fff"
           d="M109.043 19.008l-.085 5-1-.017.085-5z"
           id="path39" />
      </g>
    </g>
  </g>
  <circle
     style="fill:none;stroke-width:1;stroke-miterlimit:4;stroke-dasharray:none;filter:url(#filter4203)"
     id="path3397"
     cx="198"
     cy="22"
     r="10" />
  <circle
     style="fill:none;fill-opacity:1;stroke:#ffffff;stroke-width:2;stroke-miterlimit:4;stroke-dasharray:none;stroke-opacity:1"
     id="path4217"
     cx="198.5"
     cy="21.5"
     r="8.7956371" />
  <text
     xml:space="preserve"
     style="font-style:normal;font-weight:normal;font-size:17.5px;line-height:125%;font-family:sans-serif;letter-spacing:0px;word-spacing:0px;fill:#000000;fill-opacity:1;stroke:none;stroke-width:1px;stroke-linecap:butt;stroke-linejoin:miter;stroke-opacity:1"
     x="196.25082"
     y="28.000004"
     id="text4219"
     sodipodi:linespacing="125%"><tspan
       sodipodi:role="line"
       id="tspan4221"
       x="196.25082"
       y="28.000004"
       style="font-style:normal;font-variant:normal;font-weight:bold;font-stretch:normal;font-size:17.5px;font-family:'Arimo for Powerline';-inkscape-font-specification:'Arimo for Powerline Bold';fill:#ffffff">i</tspan></text>
</svg>
